<?xml version="1.0" encoding="UTF-8"?>
<svg width="238px" height="236px" viewBox="0 0 238 236" version="1.1" xmlns="http://www.w3.org/2000/svg" xmlns:xlink="http://www.w3.org/1999/xlink">
    <!-- Generator: Sketch 46.2 (44496) - http://www.bohemiancoding.com/sketch -->
    <title>booslife</title>
    <desc>Created with Sketch.</desc>
    <defs></defs>
    <g id="Page-1" stroke="none" stroke-width="1" fill="none" fill-rule="evenodd">
        <g id="booslife" fill-rule="nonzero">
            <path d="M237.576,81.179 L237.576,0.974 L157.367,0.974 L157.367,1.521 L118.999,38.538 L80.629,1.521 L80.629,0.974 L0.424,0.974 L0.424,81.179 L0.99,81.179 L39.157,118 L0.991,154.823 L0.425,154.823 L0.425,235.026 L80.63,235.026 L80.63,234.477 L119,197.461 L157.368,234.477 L157.368,235.026 L237.577,235.026 L237.577,154.823 L237.007,154.823 L198.84,118 L237.006,81.18 L237.576,81.18 L237.576,81.179 Z M159.27,2.876 L234.27,2.876 L197.086,38.747 L159.27,38.747 L159.27,2.876 Z M159.27,40.648 L196.52,40.648 L196.52,79.277 L159.27,79.277 L159.27,40.648 Z M158.703,81.179 L196.519,81.179 L196.519,117.048 L121.523,117.048 L158.703,81.179 Z M157.367,4.164 L157.367,38.747 L121.521,38.747 L157.367,4.164 Z M120.119,40.648 L157.367,40.648 L157.367,79.824 L120.119,115.761 L120.119,40.648 Z M80.629,4.164 L116.476,38.747 L80.629,38.747 L80.629,4.164 L80.629,4.164 Z M80.629,40.648 L117.879,40.648 L117.879,115.761 L80.629,79.824 L80.629,40.648 Z M116.474,117.048 L41.478,117.048 L41.478,81.179 L79.295,81.179 L116.474,117.048 Z M41.478,79.277 L41.478,40.648 L78.728,40.648 L78.728,79.277 L41.478,79.277 L41.478,79.277 Z M78.728,2.876 L78.728,38.747 L40.911,38.747 L3.73,2.876 L78.728,2.876 Z M2.326,4.164 L39.576,40.102 L39.576,79.278 L2.326,79.278 L2.326,4.164 Z M39.577,81.179 L39.577,115.762 L3.73,81.179 L39.577,81.179 Z M39.577,120.237 L39.577,154.822 L3.73,154.822 L39.577,120.237 Z M2.326,156.723 L39.576,156.723 L39.576,195.897 L2.326,231.836 L2.326,156.723 Z M78.728,233.125 L3.73,233.125 L40.911,197.254 L78.727,197.254 L78.727,233.125 L78.728,233.125 Z M78.728,195.352 L41.478,195.352 L41.478,156.723 L78.728,156.723 L78.728,195.352 Z M79.295,154.822 L41.478,154.822 L41.478,118.952 L116.474,118.952 L79.295,154.822 Z M80.629,231.836 L80.629,197.254 L116.476,197.254 L80.629,231.836 Z M117.879,195.352 L80.629,195.352 L80.629,156.176 L117.879,120.238 L117.879,195.352 Z M157.367,231.836 L121.521,197.254 L157.367,197.254 L157.367,231.836 Z M157.367,195.352 L120.119,195.352 L120.119,120.239 L157.367,156.177 L157.367,195.352 Z M121.523,118.952 L196.519,118.952 L196.519,154.822 L158.703,154.822 L121.523,118.952 Z M196.52,156.723 L196.52,195.352 L159.27,195.352 L159.27,156.723 L196.52,156.723 Z M159.27,233.125 L159.27,197.254 L197.086,197.254 L234.27,233.125 L159.27,233.125 Z M235.674,231.836 L198.42,195.897 L198.42,156.723 L235.674,156.723 L235.674,231.836 Z M198.42,154.822 L198.42,120.237 L234.27,154.822 L198.42,154.822 Z M198.42,115.762 L198.42,81.179 L234.27,81.179 L198.42,115.762 Z M235.674,79.277 L198.42,79.277 L198.42,40.101 L235.674,4.163 L235.674,79.277 Z" id="Shape" fill="#A7A9AC"></path>
            <g id="Group" transform="translate(55.000000, 88.000000)" fill="#000000">
                <path d="M0.907,0.696 L7.971,0.696 C10.922,0.696 12.938,1.311 14.02,2.541 C15.102,3.771 15.643,5.21 15.643,6.858 C15.643,7.903 15.446,8.786 15.052,9.506 C14.657,10.225 14.024,10.954 13.15,11.692 C14.824,12.271 16.009,13.124 16.705,14.251 C17.4,15.378 17.748,16.583 17.748,17.864 C17.748,20.094 16.985,21.831 15.46,23.075 C13.935,24.319 11.79,24.941 9.022,24.941 L0.906,24.941 L0.906,0.696 L0.907,0.696 Z M6.133,4.758 L6.133,10.076 L7.328,10.076 C8.21,10.076 8.952,9.795 9.553,9.233 C10.154,8.671 10.454,7.976 10.454,7.149 C10.454,6.482 10.16,5.917 9.571,5.454 C8.982,4.991 8.247,4.759 7.364,4.759 L6.133,4.759 L6.133,4.758 Z M6.133,14.194 L6.133,20.879 L8.006,20.879 C10.869,20.879 12.301,19.83 12.301,17.731 C12.301,16.595 11.952,15.722 11.254,15.111 C10.557,14.5 9.559,14.194 8.262,14.194 L6.133,14.194 Z" id="Shape"></path>
                <path d="M31.55,12.81 C31.55,9.227 32.735,6.27 35.105,3.937 C37.475,1.604 40.285,0.438 43.535,0.438 C47.13,0.438 50.103,1.61 52.454,3.956 C54.805,6.301 55.981,9.265 55.981,12.848 C55.981,16.406 54.817,19.36 52.491,21.712 C50.165,24.064 47.234,25.239 43.701,25.239 C40.168,25.239 37.26,24.07 34.976,21.731 C32.692,19.392 31.55,16.417 31.55,12.81 Z M43.775,5.275 C41.744,5.238 40.106,5.94 38.863,7.38 C37.619,8.82 36.998,10.68 36.998,12.957 C36.998,15.111 37.632,16.896 38.9,18.312 C40.168,19.728 41.768,20.436 43.701,20.436 C45.732,20.436 47.373,19.738 48.622,18.34 C49.872,16.943 50.497,15.099 50.497,12.809 C50.497,10.556 49.884,8.746 48.66,7.38 C47.434,6.014 45.806,5.313 43.775,5.275 Z" id="Shape"></path>
                <path d="M70.891,12.81 C70.891,9.227 72.076,6.27 74.446,3.937 C76.816,1.604 79.626,0.438 82.876,0.438 C86.471,0.438 89.443,1.61 91.795,3.956 C94.147,6.302 95.322,9.265 95.322,12.848 C95.322,16.406 94.159,19.36 91.832,21.712 C89.505,24.064 86.575,25.239 83.042,25.239 C79.509,25.239 76.601,24.07 74.317,21.731 C72.032,19.39 70.891,16.417 70.891,12.81 Z M83.115,5.275 C81.084,5.238 79.446,5.94 78.203,7.38 C76.96,8.82 76.338,10.68 76.338,12.957 C76.338,15.111 76.972,16.896 78.24,18.312 C79.508,19.728 81.108,20.436 83.041,20.436 C85.072,20.436 86.713,19.738 87.963,18.34 C89.212,16.943 89.837,15.099 89.837,12.809 C89.837,10.556 89.225,8.746 87.999,7.38 C86.774,6.014 85.146,5.313 83.115,5.275 Z" id="Shape"></path>
                <path d="M124.635,2.893 L121.385,6.457 C119.674,5.448 118.443,4.943 117.692,4.943 C117.114,4.943 116.615,5.162 116.197,5.599 C115.778,6.036 115.569,6.556 115.569,7.159 C115.569,8.353 116.652,9.387 118.819,10.262 C120.407,10.939 121.607,11.553 122.42,12.1 C123.233,12.648 123.912,13.408 124.461,14.381 C125.008,15.354 125.282,16.406 125.282,17.539 C125.282,19.62 124.442,21.429 122.761,22.968 C121.08,24.507 119.095,25.277 116.806,25.277 C114.294,25.277 111.814,24.095 109.364,21.732 L112.799,17.725 C114.338,19.313 115.778,20.107 117.12,20.107 C117.748,20.107 118.35,19.828 118.93,19.269 C119.51,18.71 119.798,18.124 119.798,17.51 C119.798,16.245 118.462,15.13 115.791,14.165 C114.264,13.608 113.181,13.086 112.541,12.6 C111.9,12.114 111.361,11.406 110.925,10.476 C110.487,9.547 110.27,8.596 110.27,7.623 C110.27,5.469 110.971,3.721 112.374,2.378 C113.777,1.037 115.612,0.365 117.877,0.365 C120.56,0.363 122.813,1.207 124.635,2.893 Z" id="Shape"></path>
            </g>
            <polygon id="Shape" fill="#000000" points="56.074 124.18 61.263 124.18 61.263 143.2 68.409 143.2 68.409 148.426 56.074 148.426"></polygon>
            <polygon id="Shape" fill="#000000" points="132.088 124.18 145.734 124.18 145.734 128.87 137.277 128.87 137.277 133.819 145.734 133.819 145.734 138.546 137.313 138.546 137.313 148.426 132.087 148.426 132.087 124.18"></polygon>
            <polygon id="Shape" fill="#000000" points="166.169 124.18 179.815 124.18 179.815 128.981 171.394 128.981 171.394 133.875 179.815 133.875 179.815 138.603 171.394 138.603 171.394 143.626 179.815 143.626 179.815 148.427 166.169 148.427 166.169 124.18"></polygon>
            <polygon id="Shape" fill="#000000" points="96.157 124.18 101.383 124.18 101.383 148.426 96.157 148.426"></polygon>
        </g>
    </g>
</svg>