<?xml version="1.0" encoding="UTF-8"?>
<svg width="238px" height="236px" viewBox="0 0 238 236" version="1.1" xmlns="http://www.w3.org/2000/svg" xmlns:xlink="http://www.w3.org/1999/xlink">
    <!-- Generator: Sketch 46.2 (44496) - http://www.bohemiancoding.com/sketch -->
    <title>booslife</title>
    <desc>Created with Sketch.</desc>
    <defs></defs>
    <g id="Page-1" stroke="none" stroke-width="1" fill="none" fill-rule="evenodd">
        <g id="booslife" fill-rule="nonzero" fill="#A7A9AC">
            <path d="M237.576,81.179 L237.576,0.974 L157.367,0.974 L157.367,1.521 L118.999,38.538 L80.629,1.521 L80.629,0.974 L0.424,0.974 L0.424,81.179 L0.99,81.179 L39.157,118 L0.991,154.823 L0.425,154.823 L0.425,235.026 L80.63,235.026 L80.63,234.477 L119,197.461 L157.368,234.477 L157.368,235.026 L237.577,235.026 L237.577,154.823 L237.007,154.823 L198.84,118 L237.006,81.18 L237.576,81.18 L237.576,81.179 Z M159.27,2.876 L234.27,2.876 L197.086,38.747 L159.27,38.747 L159.27,2.876 Z M159.27,40.648 L196.52,40.648 L196.52,79.277 L159.27,79.277 L159.27,40.648 Z M158.703,81.179 L196.519,81.179 L196.519,117.048 L121.523,117.048 L158.703,81.179 Z M157.367,4.164 L157.367,38.747 L121.521,38.747 L157.367,4.164 Z M120.119,40.648 L157.367,40.648 L157.367,79.824 L120.119,115.761 L120.119,40.648 Z M80.629,4.164 L116.476,38.747 L80.629,38.747 L80.629,4.164 L80.629,4.164 Z M80.629,40.648 L117.879,40.648 L117.879,115.761 L80.629,79.824 L80.629,40.648 Z M116.474,117.048 L41.478,117.048 L41.478,81.179 L79.295,81.179 L116.474,117.048 Z M41.478,79.277 L41.478,40.648 L78.728,40.648 L78.728,79.277 L41.478,79.277 L41.478,79.277 Z M78.728,2.876 L78.728,38.747 L40.911,38.747 L3.73,2.876 L78.728,2.876 Z M2.326,4.164 L39.576,40.102 L39.576,79.278 L2.326,79.278 L2.326,4.164 Z M39.577,81.179 L39.577,115.762 L3.73,81.179 L39.577,81.179 Z M39.577,120.237 L39.577,154.822 L3.73,154.822 L39.577,120.237 Z M2.326,156.723 L39.576,156.723 L39.576,195.897 L2.326,231.836 L2.326,156.723 Z M78.728,233.125 L3.73,233.125 L40.911,197.254 L78.727,197.254 L78.727,233.125 L78.728,233.125 Z M78.728,195.352 L41.478,195.352 L41.478,156.723 L78.728,156.723 L78.728,195.352 Z M79.295,154.822 L41.478,154.822 L41.478,118.952 L116.474,118.952 L79.295,154.822 Z M80.629,231.836 L80.629,197.254 L116.476,197.254 L80.629,231.836 Z M117.879,195.352 L80.629,195.352 L80.629,156.176 L117.879,120.238 L117.879,195.352 Z M157.367,231.836 L121.521,197.254 L157.367,197.254 L157.367,231.836 Z M157.367,195.352 L120.119,195.352 L120.119,120.239 L157.367,156.177 L157.367,195.352 Z M121.523,118.952 L196.519,118.952 L196.519,154.822 L158.703,154.822 L121.523,118.952 Z M196.52,156.723 L196.52,195.352 L159.27,195.352 L159.27,156.723 L196.52,156.723 Z M159.27,233.125 L159.27,197.254 L197.086,197.254 L234.27,233.125 L159.27,233.125 Z M235.674,231.836 L198.42,195.897 L198.42,156.723 L235.674,156.723 L235.674,231.836 Z M198.42,154.822 L198.42,120.237 L234.27,154.822 L198.42,154.822 Z M198.42,115.762 L198.42,81.179 L234.27,81.179 L198.42,115.762 Z M235.674,79.277 L198.42,79.277 L198.42,40.101 L235.674,4.163 L235.674,79.277 Z" id="Shape"></path>
        </g>
    </g>
</svg>